# Rhino

o object_1
v -50 0 19.299999237060547
v -50 27.5 19.299999237060547
v -29.399999618530273 0 19.299999237060547
v -29.399999618530273 27.5 19.299999237060547
v -29.399999618530273 0 19.299999237060547
v -29.399999618530273 27.5 19.299999237060547
v -29.399999618530273 0 -19.299999237060547
v -29.399999618530273 27.5 -19.299999237060547
v -29.399999618530273 0 -19.299999237060547
v -29.399999618530273 27.5 -19.299999237060547
v -50 0 -19.299999237060547
v -50 27.5 -19.299999237060547
v -50 0 -19.299999237060547
v -50 27.5 -19.299999237060547
v -50 0 19.299999237060547
v -50 27.5 19.299999237060547
v -50 0 19.299999237060547
v -50 0 -19.299999237060547
v -29.399999618530273 0 19.299999237060547
v -29.399999618530273 0 -19.299999237060547
v -50 27.5 19.299999237060547
v -50 27.5 -19.299999237060547
v -29.399999618530273 27.5 19.299999237060547
v -29.399999618530273 27.5 -19.299999237060547
vt 0.99853515625 0.4678787887096405
vt 0.66666668653488159 0.4678787887096405
vt 0.99853515625 0.71757572889328003
vt 0.66666668653488159 0.71757572889328003
vt 0.66520184278488159 0.4678787887096405
vt 0.3333333432674408 0.4678787887096405
vt 0.66520184278488159 0.93429273366928101
vt 0.3333333432674408 0.93429273366928101
vt 0.99853515625 0
vt 0.66666668653488159 0
vt 0.99853515625 0.24969696998596191
vt 0.66666668653488159 0.24969696998596191
vt 0.3318684995174408 0.4678787887096405
vt 0 0.4678787887096405
vt 0.3318684995174408 0.93429273366928101
vt 0 0.93429273366928101
vt 0.3333333432674408 0
vt 0.3333333432674408 0.4664139449596405
vt 0.58303028345108032 0
vt 0.58303028345108032 0.4664139449596405
vt 0 0
vt 0 0.4664139449596405
vt 0.24969696998596191 0
vt 0.24969696998596191 0.4664139449596405
vn 0 0 1
vn 0 0 1
vn 0 0 1
vn 0 0 1
vn 1 0 0
vn 1 0 0
vn 1 0 0
vn 1 0 0
vn 0 0 -1
vn 0 0 -1
vn 0 0 -1
vn 0 0 -1
vn -1 0 0
vn -1 0 0
vn -1 0 0
vn -1 0 0
vn 0 -1 0
vn 0 -1 0
vn 0 -1 0
vn 0 -1 0
vn 0 1 0
vn 0 1 0
vn 0 1 0
vn 0 1 0
f 2/2/2 1/1/1 3/3/3 4/4/4
f 6/6/6 5/5/5 7/7/7 8/8/8
f 10/10/10 9/9/9 11/11/11 12/12/12
f 14/14/14 13/13/13 15/15/15 16/16/16
f 18/18/18 20/20/20 19/19/19 17/17/17
f 22/22/22 21/21/21 23/23/23 24/24/24
o object_2
v 29.399999618530273 0 19.299999237060547
v 29.399999618530273 27.5 19.299999237060547
v 50 0 19.299999237060547
v 50 27.5 19.299999237060547
v 50 0 19.299999237060547
v 50 27.5 19.299999237060547
v 50 0 -19.299999237060547
v 50 27.5 -19.299999237060547
v 50 0 -19.299999237060547
v 50 27.5 -19.299999237060547
v 29.399999618530273 0 -19.299999237060547
v 29.399999618530273 27.5 -19.299999237060547
v 29.399999618530273 0 -19.299999237060547
v 29.399999618530273 27.5 -19.299999237060547
v 29.399999618530273 0 19.299999237060547
v 29.399999618530273 27.5 19.299999237060547
v 29.399999618530273 0 19.299999237060547
v 29.399999618530273 0 -19.299999237060547
v 50 0 19.299999237060547
v 50 0 -19.299999237060547
v 29.399999618530273 27.5 19.299999237060547
v 29.399999618530273 27.5 -19.299999237060547
v 50 27.5 19.299999237060547
v 50 27.5 -19.299999237060547
vt 0.99853515625 0.4678787887096405
vt 0.66666668653488159 0.4678787887096405
vt 0.99853515625 0.71757572889328003
vt 0.66666668653488159 0.71757572889328003
vt 0.66520184278488159 0.4678787887096405
vt 0.3333333432674408 0.4678787887096405
vt 0.66520184278488159 0.93429273366928101
vt 0.3333333432674408 0.93429273366928101
vt 0.99853515625 0
vt 0.66666668653488159 0
vt 0.99853515625 0.24969696998596191
vt 0.66666668653488159 0.24969696998596191
vt 0.3318684995174408 0.4678787887096405
vt 0 0.4678787887096405
vt 0.3318684995174408 0.93429273366928101
vt 0 0.93429273366928101
vt 0.3333333432674408 0
vt 0.3333333432674408 0.4664139449596405
vt 0.58303028345108032 0
vt 0.58303028345108032 0.4664139449596405
vt 0 0
vt 0 0.4664139449596405
vt 0.24969696998596191 0
vt 0.24969696998596191 0.4664139449596405
vn 0 0 1
vn 0 0 1
vn 0 0 1
vn 0 0 1
vn 1 0 0
vn 1 0 0
vn 1 0 0
vn 1 0 0
vn 0 0 -1
vn 0 0 -1
vn 0 0 -1
vn 0 0 -1
vn -1 0 0
vn -1 0 0
vn -1 0 0
vn -1 0 0
vn 0 -1 0
vn 0 -1 0
vn 0 -1 0
vn 0 -1 0
vn 0 1 0
vn 0 1 0
vn 0 1 0
vn 0 1 0
f 26/26/26 25/25/25 27/27/27 28/28/28
f 30/30/30 29/29/29 31/31/31 32/32/32
f 34/34/34 33/33/33 35/35/35 36/36/36
f 38/38/38 37/37/37 39/39/39 40/40/40
f 42/42/42 44/44/44 43/43/43 41/41/41
f 46/46/46 45/45/45 47/47/47 48/48/48
o object_3
v -19.299999237060547 0 50
v -19.299999237060547 27.5 50
v 19.299999237060547 0 50
v 19.299999237060547 27.5 50
v 19.299999237060547 0 50
v 19.299999237060547 27.5 50
v 19.299999237060547 0 29.399999618530273
v 19.299999237060547 27.5 29.399999618530273
v 19.299999237060547 0 29.399999618530273
v 19.299999237060547 27.5 29.399999618530273
v -19.299999237060547 0 29.399999618530273
v -19.299999237060547 27.5 29.399999618530273
v -19.299999237060547 0 29.399999618530273
v -19.299999237060547 27.5 29.399999618530273
v -19.299999237060547 0 50
v -19.299999237060547 27.5 50
v -19.299999237060547 0 50
v -19.299999237060547 0 29.399999618530273
v 19.299999237060547 0 50
v 19.299999237060547 0 29.399999618530273
v -19.299999237060547 27.5 50
v -19.299999237060547 27.5 29.399999618530273
v 19.299999237060547 27.5 50
v 19.299999237060547 27.5 29.399999618530273
vt 0.66520184278488159 0.4678787887096405
vt 0.3333333432674408 0.4678787887096405
vt 0.66520184278488159 0.93429273366928101
vt 0.3333333432674408 0.93429273366928101
vt 0.99853515625 0.4678787887096405
vt 0.66666668653488159 0.4678787887096405
vt 0.99853515625 0.71757572889328003
vt 0.66666668653488159 0.71757572889328003
vt 0.3318684995174408 0.4678787887096405
vt 0 0.4678787887096405
vt 0.3318684995174408 0.93429273366928101
vt 0 0.93429273366928101
vt 0.99853515625 0
vt 0.66666668653488159 0
vt 0.99853515625 0.24969696998596191
vt 0.66666668653488159 0.24969696998596191
vt 0.58303028345108032 0
vt 0.3333333432674408 0
vt 0.58303028345108032 0.4664139449596405
vt 0.3333333432674408 0.4664139449596405
vt 0.24969696998596191 0
vt 0 0
vt 0.24969696998596191 0.4664139449596405
vt 0 0.4664139449596405
vn 0 0 1
vn 0 0 1
vn 0 0 1
vn 0 0 1
vn 1 0 0
vn 1 0 0
vn 1 0 0
vn 1 0 0
vn 0 0 -1
vn 0 0 -1
vn 0 0 -1
vn 0 0 -1
vn -1 0 0
vn -1 0 0
vn -1 0 0
vn -1 0 0
vn 0 -1 0
vn 0 -1 0
vn 0 -1 0
vn 0 -1 0
vn 0 1 0
vn 0 1 0
vn 0 1 0
vn 0 1 0
f 50/50/50 49/49/49 51/51/51 52/52/52
f 54/54/54 53/53/53 55/55/55 56/56/56
f 58/58/58 57/57/57 59/59/59 60/60/60
f 62/62/62 61/61/61 63/63/63 64/64/64
f 66/66/66 68/68/68 67/67/67 65/65/65
f 70/70/70 69/69/69 71/71/71 72/72/72
o object_4
v -19.299999237060547 0 -29.399999618530273
v -19.299999237060547 27.5 -29.399999618530273
v 19.299999237060547 0 -29.399999618530273
v 19.299999237060547 27.5 -29.399999618530273
v 19.299999237060547 0 -29.399999618530273
v 19.299999237060547 27.5 -29.399999618530273
v 19.299999237060547 0 -50
v 19.299999237060547 27.5 -50
v 19.299999237060547 0 -50
v 19.299999237060547 27.5 -50
v -19.299999237060547 0 -50
v -19.299999237060547 27.5 -50
v -19.299999237060547 0 -50
v -19.299999237060547 27.5 -50
v -19.299999237060547 0 -29.399999618530273
v -19.299999237060547 27.5 -29.399999618530273
v -19.299999237060547 0 -29.399999618530273
v -19.299999237060547 0 -50
v 19.299999237060547 0 -29.399999618530273
v 19.299999237060547 0 -50
v -19.299999237060547 27.5 -29.399999618530273
v -19.299999237060547 27.5 -50
v 19.299999237060547 27.5 -29.399999618530273
v 19.299999237060547 27.5 -50
vt 0.66520184278488159 0.4678787887096405
vt 0.3333333432674408 0.4678787887096405
vt 0.66520184278488159 0.93429273366928101
vt 0.3333333432674408 0.93429273366928101
vt 0.99853515625 0.4678787887096405
vt 0.66666668653488159 0.4678787887096405
vt 0.99853515625 0.71757572889328003
vt 0.66666668653488159 0.71757572889328003
vt 0.3318684995174408 0.4678787887096405
vt 0 0.4678787887096405
vt 0.3318684995174408 0.93429273366928101
vt 0 0.93429273366928101
vt 0.99853515625 0
vt 0.66666668653488159 0
vt 0.99853515625 0.24969696998596191
vt 0.66666668653488159 0.24969696998596191
vt 0.58303028345108032 0
vt 0.3333333432674408 0
vt 0.58303028345108032 0.4664139449596405
vt 0.3333333432674408 0.4664139449596405
vt 0.24969696998596191 0
vt 0 0
vt 0.24969696998596191 0.4664139449596405
vt 0 0.4664139449596405
vn 0 0 1
vn 0 0 1
vn 0 0 1
vn 0 0 1
vn 1 0 0
vn 1 0 0
vn 1 0 0
vn 1 0 0
vn 0 0 -1
vn 0 0 -1
vn 0 0 -1
vn 0 0 -1
vn -1 0 0
vn -1 0 0
vn -1 0 0
vn -1 0 0
vn 0 -1 0
vn 0 -1 0
vn 0 -1 0
vn 0 -1 0
vn 0 1 0
vn 0 1 0
vn 0 1 0
vn 0 1 0
f 74/74/74 73/73/73 75/75/75 76/76/76
f 78/78/78 77/77/77 79/79/79 80/80/80
f 82/82/82 81/81/81 83/83/83 84/84/84
f 86/86/86 85/85/85 87/87/87 88/88/88
f 90/90/90 92/92/92 91/91/91 89/89/89
f 94/94/94 93/93/93 95/95/95 96/96/96
