# Rhino

o object_1
v 40.259944915771484 0 2.6715223789215088
v 40.259944915771484 24 2.6715223789215088
v 39.750144958496094 0 24.465560913085938
v 39.750144958496094 24 24.465560913085938
v 39.750144958496094 0 24.465560913085938
v 39.750144958496094 24 24.465560913085938
v 76.640052795410156 0 25.32847785949707
v 76.640052795410156 24 25.32847785949707
v 76.640052795410156 0 25.32847785949707
v 76.640052795410156 24 25.32847785949707
v 77.149856567382813 0 3.5344393253326416
v 77.149856567382813 24 3.5344393253326416
v 77.149856567382813 0 3.5344393253326416
v 77.149856567382813 24 3.5344393253326416
v 40.259944915771484 0 2.6715223789215088
v 40.259944915771484 24 2.6715223789215088
v 40.259944915771484 0 2.6715223789215088
v 77.149856567382813 0 3.5344393253326416
v 39.750144958496094 0 24.465560913085938
v 76.640052795410156 0 25.32847785949707
v 40.259944915771484 24 2.6715223789215088
v 77.149856567382813 24 3.5344393253326416
v 39.750144958496094 24 24.465560913085938
v 76.640052795410156 24 25.32847785949707
vt 0.97414493560791016 0
vt 0.65040647983551025 0
vt 0.97414493560791016 0.2953929603099823
vt 0.65040647983551025 0.2953929603099823
vt 0.64894163608551025 0.5
vt 0.32520323991775513 0.5
vt 0.64894163608551025 0.99853515625
vt 0.32520323991775513 0.99853515625
vt 0.97414493560791016 0.5
vt 0.65040647983551025 0.5
vt 0.97414493560791016 0.79539293050765991
vt 0.65040647983551025 0.79539293050765991
vt 0.32373839616775513 0.5
vt 0 0.5
vt 0.32373839616775513 0.99853515625
vt 0 0.99853515625
vt 0.32520323991775513 0
vt 0.32520323991775513 0.49853515625
vt 0.62059623003005981 0
vt 0.62059623003005981 0.49853515625
vt 0 0
vt 0 0.49853515625
vt 0.2953929603099823 0
vt 0.2953929603099823 0.49853515625
vn -0.99972653388977051 0 -0.02338528074324131
vn -0.99972653388977051 0 -0.02338528074324131
vn -0.99972653388977051 0 -0.02338528074324131
vn -0.99972653388977051 0 -0.02338528074324131
vn -0.02338528074324131 0 0.99972653388977051
vn -0.02338528074324131 0 0.99972653388977051
vn -0.02338528074324131 0 0.99972653388977051
vn -0.02338528074324131 0 0.99972653388977051
vn 0.99972653388977051 0 0.02338528074324131
vn 0.99972653388977051 0 0.02338528074324131
vn 0.99972653388977051 0 0.02338528074324131
vn 0.99972653388977051 0 0.02338528074324131
vn 0.02338528074324131 0 -0.99972653388977051
vn 0.02338528074324131 0 -0.99972653388977051
vn 0.02338528074324131 0 -0.99972653388977051
vn 0.02338528074324131 0 -0.99972653388977051
vn 0 -1 0
vn 0 -1 0
vn 0 -1 0
vn 0 -1 0
vn 0 1 0
vn 0 1 0
vn 0 1 0
vn 0 1 0
f 2/2/2 1/1/1 3/3/3 4/4/4
f 6/6/6 5/5/5 7/7/7 8/8/8
f 10/10/10 9/9/9 11/11/11 12/12/12
f 14/14/14 13/13/13 15/15/15 16/16/16
f 18/18/18 20/20/20 19/19/19 17/17/17
f 22/22/22 21/21/21 23/23/23 24/24/24
o object_2
v 45.144210815429688 0 -33.283054351806641
v 45.144210815429688 24 -33.283054351806641
v 44.664813995361328 0 -9.7886600494384766
v 44.664813995361328 24 -9.7886600494384766
v 44.664813995361328 0 -9.7886600494384766
v 44.664813995361328 24 -9.7886600494384766
v 77.655792236328125 0 -9.0169458389282227
v 77.655792236328125 24 -9.0169458389282227
v 77.655792236328125 0 -9.0169458389282227
v 77.655792236328125 24 -9.0169458389282227
v 78.135185241699219 0 -32.511341094970703
v 78.135185241699219 24 -32.511341094970703
v 78.135185241699219 0 -32.511341094970703
v 78.135185241699219 24 -32.511341094970703
v 45.144210815429688 0 -33.283054351806641
v 45.144210815429688 24 -33.283054351806641
v 78.135185241699219 0 -32.511341094970703
v 77.655792236328125 0 -9.0169458389282227
v 45.144210815429688 0 -33.283054351806641
v 44.664813995361328 0 -9.7886600494384766
v 78.135185241699219 24 -32.511341094970703
v 77.655792236328125 24 -9.0169458389282227
v 45.144210815429688 24 -33.283054351806641
v 44.664813995361328 24 -9.7886600494384766
vt 0.99853515625 0.4583333432674408
vt 0.66666668653488159 0.4583333432674408
vt 0.99853515625 0.78471225500106812
vt 0.66666668653488159 0.78471225500106812
vt 0.66520184278488159 0.4583333432674408
vt 0.3333333432674408 0.4583333432674408
vt 0.66520184278488159 0.91520184278488159
vt 0.3333333432674408 0.91520184278488159
vt 0.99853515625 0
vt 0.66666668653488159 0
vt 0.99853515625 0.32637894153594971
vt 0.66666668653488159 0.32637894153594971
vt 0.3318684995174408 0.4583333432674408
vt 0 0.4583333432674408
vt 0.3318684995174408 0.91520184278488159
vt 0 0.91520184278488159
vt 0.65971225500106812 0
vt 0.3333333432674408 0
vt 0.65971225500106812 0.4568684995174408
vt 0.3333333432674408 0.4568684995174408
vt 0.32637894153594971 0
vt 0 0
vt 0.32637894153594971 0.4568684995174408
vt 0 0.4568684995174408
vn -0.99979186058044434 0 -0.020400546491146088
vn -0.99979186058044434 0 -0.020400546491146088
vn -0.99979186058044434 0 -0.020400546491146088
vn -0.99979186058044434 0 -0.020400546491146088
vn -0.02338528074324131 0 0.99972653388977051
vn -0.02338528074324131 0 0.99972653388977051
vn -0.02338528074324131 0 0.99972653388977051
vn -0.02338528074324131 0 0.99972653388977051
vn 0.99979186058044434 0 0.020400546491146088
vn 0.99979186058044434 0 0.020400546491146088
vn 0.99979186058044434 0 0.020400546491146088
vn 0.99979186058044434 0 0.020400546491146088
vn 0.02338528074324131 0 -0.99972653388977051
vn 0.02338528074324131 0 -0.99972653388977051
vn 0.02338528074324131 0 -0.99972653388977051
vn 0.02338528074324131 0 -0.99972653388977051
vn 0 -1 0
vn 0 -1 0
vn 0 -1 0
vn 0 -1 0
vn 0 1 0
vn 0 1 0
vn 0 1 0
vn 0 1 0
f 26/26/26 25/25/25 27/27/27 28/28/28
f 30/30/30 29/29/29 31/31/31 32/32/32
f 34/34/34 33/33/33 35/35/35 36/36/36
f 38/38/38 37/37/37 39/39/39 40/40/40
f 42/42/42 44/44/44 43/43/43 41/41/41
f 46/46/46 45/45/45 47/47/47 48/48/48
o object_3
v 8.2430105209350586 0 -33.231613159179688
v 8.2430105209350586 24 -33.231613159179688
v 7.5648379325866699 0 -4.2395439147949219
v 7.5648379325866699 24 -4.2395439147949219
v 7.5648379325866699 0 -4.2395439147949219
v 7.5648379325866699 24 -4.2395439147949219
v 32.256988525390625 0 -3.5683865547180176
v 32.256988525390625 24 -3.5683865547180176
v 32.256988525390625 0 -3.5683865547180176
v 32.256988525390625 24 -3.5683865547180176
v 32.935161590576172 0 -32.560455322265625
v 32.935161590576172 24 -32.560455322265625
v 32.935161590576172 0 -32.560455322265625
v 32.935161590576172 24 -32.560455322265625
v 8.2430105209350586 0 -33.231613159179688
v 8.2430105209350586 24 -33.231613159179688
v 32.935161590576172 0 -32.560455322265625
v 32.256988525390625 0 -3.5683865547180176
v 8.2430105209350586 0 -33.231613159179688
v 7.5648379325866699 0 -4.2395439147949219
v 32.935161590576172 24 -32.560455322265625
v 32.256988525390625 24 -3.5683865547180176
v 8.2430105209350586 24 -33.231613159179688
v 7.5648379325866699 24 -4.2395439147949219
vt 0.31505700945854187 0.6211695671081543
vt 0.31505700945854187 0.92581719160079956
vt 0.68347811698913574 0.6211695671081543
vt 0.68347811698913574 0.92581719160079956
vt 0.68494296073913574 0
vt 0.68494296073913574 0.30611252784729004
vt 0.99853515625 0
vt 0.99853515625 0.30611252784729004
vt 0.31505700945854187 0.31505700945854187
vt 0.31505700945854187 0.6197047233581543
vt 0.68347811698913574 0.31505700945854187
vt 0.68347811698913574 0.6197047233581543
vt 0.68494296073913574 0.46364101767539978
vt 0.68494296073913574 0.76975357532501221
vt 0.99853515625 0.46364101767539978
vt 0.99853515625 0.76975357532501221
vt 0 0.31505700945854187
vt 0 0.68494296073913574
vt 0.31359216570854187 0.31505700945854187
vt 0.31359216570854187 0.68494296073913574
vt 0.36988595128059387 0
vt 0 0
vt 0.36988595128059387 0.31359216570854187
vt 0 0.31359216570854187
vn -0.99972653388977051 0 -0.02338528074324131
vn -0.99972653388977051 0 -0.02338528074324131
vn -0.99972653388977051 0 -0.02338528074324131
vn -0.99972653388977051 0 -0.02338528074324131
vn -0.027170971035957336 0 0.99963080883026123
vn -0.027170971035957336 0 0.99963080883026123
vn -0.027170971035957336 0 0.99963080883026123
vn -0.027170971035957336 0 0.99963080883026123
vn 0.99972653388977051 0 0.02338528074324131
vn 0.99972653388977051 0 0.02338528074324131
vn 0.99972653388977051 0 0.02338528074324131
vn 0.99972653388977051 0 0.02338528074324131
vn 0.027170971035957336 0 -0.99963080883026123
vn 0.027170971035957336 0 -0.99963080883026123
vn 0.027170971035957336 0 -0.99963080883026123
vn 0.027170971035957336 0 -0.99963080883026123
vn 0 -1 0
vn 0 -1 0
vn 0 -1 0
vn 0 -1 0
vn 0 1 0
vn 0 1 0
vn 0 1 0
vn 0 1 0
f 50/50/50 49/49/49 51/51/51 52/52/52
f 54/54/54 53/53/53 55/55/55 56/56/56
f 58/58/58 57/57/57 59/59/59 60/60/60
f 62/62/62 61/61/61 63/63/63 64/64/64
f 66/66/66 68/68/68 67/67/67 65/65/65
f 70/70/70 69/69/69 71/71/71 72/72/72
